<?xml version="1.0" encoding="UTF-8"?>
<svg width="78px" height="78px" viewBox="0 0 78 78" version="1.1" xmlns="http://www.w3.org/2000/svg" xmlns:xlink="http://www.w3.org/1999/xlink">
    <title>handstand-footer-logo</title>
    <g id="Page-1" stroke="none" stroke-width="1" fill="none" fill-rule="evenodd">
        <g id="MacBook-Pro-14&quot;-Copy-6" transform="translate(-28.000000, -7062.170159)">
            <g id="Group-23" transform="translate(0.000000, 6978.721314)">
                <g id="handstand-footer-logo" transform="translate(28.000000, 83.448845)">
                    <circle id="Oval" fill="#FFFFFF" cx="39" cy="39" r="39"></circle>
                    <path d="M30,59.9421 C29.0070672,60.1783664 28.7104769,59.646767 28.4461246,59.1565142 C27.8013631,57.9751822 28.0657153,56.6875303 28.0012391,55.4412251 C28.0012391,55.0336655 28.0399248,54.626106 28.0721629,54 C28.4636521,54.7562628 28.6325741,55.5931315 28.5621817,56.4276373 C28.4912579,57.7271025 28.7169245,58.9084345 30,59.9421 L30,59.9421 Z" id="Shape" fill="#545E67"></path>
                    <path d="M30.0181259,52.3442732 C29.6136984,53.1188495 29.0526157,53.7936174 28.3733097,54.3223579 C28.2118114,54.4550662 28.1625573,54.6872519 28.2554401,54.8779997 C28.4663026,55.6125162 28.5461901,56.3807655 28.4911792,57.1450181 C28.4911792,58.2007374 28.5393986,59.2675696 29.2573314,60.1343708 C29.278142,60.151256 29.2931683,60.1746312 29.3001931,60.2010478 C29.2680468,61.4345725 30.0020528,60.8233666 30.511035,60.7566896 C30.6473514,60.6928581 30.7954499,60.6606229 30.9450093,60.6622305 C31.8019194,61.0310724 32.703068,61.2777991 33.623863,61.3956776 C33.1994324,61.8057154 32.626176,62.0079323 32.048697,61.9513194 C31.132529,61.8513038 30.2377919,62.0291092 29.3323393,61.9957707 C29.0590962,61.9957707 28.7001298,62.0291092 28.9733729,61.534588 C29.0384393,61.3810458 28.9744598,61.2016487 28.8287148,61.1289695 C27.4035646,60.0788066 27.0981753,58.5230097 27.012452,56.8894229 C26.9642326,56.000396 27.1785409,55.1169256 27.012452,54.216786 C26.9508565,53.8384422 27.1215434,53.4600673 27.4410686,53.2666385 C28.4074426,52.6068872 29.130542,51.6278818 29.4930705,50.4884297 C29.6438213,50.0302241 29.9992338,49.6761251 30.4467425,49.5382823 C30.9557435,49.3686343 31.7647385,48.643699 31.7647385,48.643699 L32.6498166,48 C32.6498166,48 32.7736082,48.4095575 32.8469954,48.6937068 C32.9780714,49.3755182 32.8134964,50.0826165 32.396948,50.6273401 C32.2049713,50.8336617 32.1453943,51.1365254 32.2441012,51.4043481 C32.3428081,51.6721709 32.5819821,51.8566102 32.8577109,51.8775341 C33.1023392,51.8528263 33.3463485,51.9304915 33.5354958,52.0932646 C33.7246431,52.2560378 33.8432534,52.4904296 33.8649599,52.7443353 C34.117979,53.3047031 34.0090735,53.9690834 33.5917168,54.4112606 C32.8685117,55.1810797 31.8394746,55.5553203 30.8110666,55.4225286 C30.2932009,55.3702859 29.8426928,55.0326156 29.6323709,54.5390582 C29.4576236,54.1085896 29.6124676,53.6102978 29.9966951,53.366654 C30.271145,53.1299595 30.3094651,52.7077079 30.0824184,52.422063 L30.0181259,52.3442732 Z" id="Shape" fill="#545E67"></path>
                    <path d="M31.1852943,48.0102092 C30.7678352,48.2621055 30.307703,48.4249198 29.8309722,48.4894258 C29.2350705,48.60923 28.9691309,49.1353265 28.7081161,49.6249609 C28.4471013,50.1145953 28.2648834,50.1458485 27.9792446,49.5937076 C27.1202628,48.0975193 26.7083094,46.3619195 26.7972907,44.6140217 C26.945035,42.5304712 26.688945,40.4833827 26.7972907,38.4206676 C26.9268435,36.7915455 27.2750756,35.1902369 27.8315003,33.6649634 C28.1897925,32.8381727 28.1897925,31.887316 27.8315003,31.0605252 C27.7513929,30.9380677 27.7365073,30.7806256 27.7921019,30.6438151 C28.2845826,29.6020398 28.0383423,28.456087 28.1417632,27.3622229 C28.3042819,25.5964138 28.3633796,23.8149781 28.4323269,22.0387512 C28.5333909,21.2162531 28.3905659,20.3808543 28.0235678,19.6478769 C28.1758367,21.2997277 28.1361424,22.9650899 27.9053724,24.6067273 C27.7570197,23.7301877 27.725523,22.8359852 27.8118011,21.9502003 C27.8118011,21.2730464 27.6689817,20.6271457 27.6542073,19.9604095 C27.6542073,19.6582947 27.4473653,19.6374592 27.225749,19.5957881 C26.1462877,19.4754954 25.055328,19.5512468 24,19.8197698 C24.6500746,18.7779945 25.3493973,17.8195613 26.5805992,17.5226553 C26.8633293,17.433183 27.1646352,17.433183 27.4473653,17.5226553 C27.9398461,17.704966 28.3978532,17.3090914 28.8361611,17.0955274 C29.0571918,16.9385625 29.3538999,16.978625 29.530559,17.1892872 C29.7527887,17.348748 29.8356547,17.6533172 29.7275513,17.9133211 C29.195672,18.9550963 29.5502582,19.9604095 29.7275513,20.9448871 C30.1296277,22.5737087 30.4095688,24.2335458 30.5647686,25.9089464 C30.6033939,26.3512665 30.4935517,26.7938497 30.2545057,27.1590768 C29.6476504,28.0051551 29.5160819,29.1303429 29.9097692,30.1073008 C30.2791297,31.0657341 30.5204453,32.0762561 30.8947307,33.0398983 C31.4167603,34.441086 31.2837905,35.8579004 31.091723,37.2799237 C30.9896792,37.9190787 30.7022647,38.5088614 30.2692801,38.9675997 C29.8718301,39.4358521 29.5401142,39.9621266 29.2843186,40.5302626 C28.9100332,41.3115941 29.4123636,42.0200013 29.707852,42.6815286 C30.1215359,43.5201577 30.6977384,44.2494004 31.0621741,45.0828206 C31.4419569,45.8267911 32,47.4098793 32,47.4098793 L31.1852943,48.0102092 Z" id="Shape" fill="#545E67"></path>
                    <path d="M50,39.5871907 L50,60.1421544 C50,60.8374266 49.7993774,61.0256205 49.1183166,60.9942549 C47.8415356,60.9283053 46.5621505,60.9283053 45.2853695,60.9942549 C44.4723201,61.046531 44.3561702,60.7433296 44.3614497,60.0323746 C44.3614497,54.7211225 44.3614497,49.4098705 44.3984065,44.0933908 C44.3984065,43.3510701 44.1766658,43.1994694 43.4744868,43.204697 C39.7788077,43.2412903 36.0831287,43.204697 32.4191269,43.204697 C32.0917954,43.204697 31.6641525,43.3458425 31.5427231,42.8649024 C31.3896164,42.2584996 30.6821578,41.7671042 31.1678756,41.0195559 C31.7908615,40.0629033 32.4085679,39.0957954 32.9998765,38.1182322 C33.169901,37.7859803 33.5282607,37.590925 33.9026781,37.6268369 L43.6064753,37.6268369 C44.2294612,37.6268369 44.3984065,37.4647809 44.393127,36.8479229 C44.393127,30.8413987 44.393127,24.8244193 44.3614497,18.8231226 C44.3614497,18.1592161 44.5356746,17.9762498 45.1956173,18.0023878 C46.5471799,18.0546639 47.904022,18.0494363 49.2555847,18.0023878 C49.8680115,18.0023878 49.9947205,18.1958094 49.9947205,18.7603913 C49.9876811,25.7165981 49.9894409,32.6588645 50,39.5871907 L50,39.5871907 Z" id="Shape" fill="#545E67"></path>
                </g>
            </g>
        </g>
    </g>
</svg>