<?xml version="1.0" encoding="UTF-8"?>
<svg width="121.085969px" height="28.4450824px" viewBox="0 0 121.085969 28.4450824" version="1.1" xmlns="http://www.w3.org/2000/svg" xmlns:xlink="http://www.w3.org/1999/xlink">
    <title>logo-handstand-header</title>
    <g id="Page-1" stroke="none" stroke-width="1" fill="none" fill-rule="evenodd">
        <g id="MacBook-Pro-14&quot;-Copy-6" transform="translate(-78.831346, -28.309676)" fill="#FFFFFF">
            <g id="logo-handstand-header" transform="translate(78.831346, 28.309676)">
                <path d="M28.3983048,28.2075652 L27.6618986,26.5053583 L22.2881238,26.5053583 L21.5517176,28.2075652 L18.6658015,28.2075652 L24.5371481,14.9065996 L25.4327772,14.9065996 L31.2842209,28.2075652 L28.3983048,28.2075652 Z M26.7065609,24.3083238 L24.9750112,19.9142548 L23.2434616,24.3083238 L26.7065609,24.3083238 Z M41.5740046,15.1441169 L41.5740046,22.9228065 L33.9512055,14.9065996 L33.0754792,14.9065996 L33.0754792,28.2075652 L35.7623666,28.2075652 L35.7623666,20.3694962 L43.3652629,28.4450824 L44.260892,28.4450824 L44.260892,15.1441169 L41.5740046,15.1441169 Z M51.5652452,15.1441169 C53.6882181,15.1441169 55.4131333,15.73791 56.7399914,16.9254962 C58.0668494,18.1130824 58.7302783,19.6833352 58.7302783,21.6362548 C58.7302783,23.5627834 58.0635322,25.1396341 56.7300399,26.3668065 C55.3965476,27.593979 53.6749494,28.2075652 51.5652452,28.2075652 L47.2662254,28.2075652 L47.2662254,15.1441169 L51.5652452,15.1441169 Z M51.5453424,17.5588755 L49.9531128,17.5588755 L49.9531128,25.7928065 L51.5453424,25.7928065 C52.8722004,25.7928065 53.9403209,25.4134386 54.7497044,24.6547031 C55.5590879,23.8959676 55.9637794,22.8898179 55.9637794,21.6362548 C55.9637794,20.3694962 55.5624048,19.3732434 54.7596558,18.6474962 C53.9569068,17.921749 52.8854688,17.5588755 51.5453424,17.5588755 Z M65.1190995,14.9065996 C63.8585845,14.9065996 62.8170008,15.2463814 61.994349,15.9259445 C61.1716971,16.6055076 60.760371,17.4994962 60.760371,18.60791 C60.760371,19.465611 61.035694,20.1913583 61.5863401,20.7851514 C62.1369863,21.3789445 62.9231497,21.9067607 63.9448302,22.3685996 L65.357934,23.001979 C65.7825284,23.19991 66.0910229,23.3516572 66.2834174,23.4572203 C66.4758119,23.5627834 66.6483033,23.7178296 66.800892,23.9223583 C66.9534808,24.1268869 67.029775,24.3611055 67.029775,24.6250134 C67.029775,25.0736572 66.8639179,25.4266341 66.5322033,25.6839445 C66.2004887,25.9412548 65.7427227,26.06991 65.1589053,26.06991 C63.9249273,26.06991 62.8501724,25.4365307 61.9346404,24.1697721 L60.0836735,25.5552893 C60.5878794,26.4393814 61.2811629,27.1420365 62.1635234,27.6632548 C63.0458838,28.1844731 64.0443446,28.4450824 65.1589053,28.4450824 C66.4990317,28.4450824 67.6003241,28.0888065 68.4627816,27.3762548 C69.3252392,26.6637031 69.7564682,25.7136341 69.7564682,24.5260479 C69.7564682,23.6419559 69.4910967,22.9063124 68.9603534,22.3191169 C68.4296101,21.7319214 67.6135924,21.1942089 66.5123004,20.705979 L65.0195852,20.0528065 C64.4623048,19.8020938 64.0675647,19.5744731 63.8353644,19.3699445 C63.6031642,19.1654158 63.4870642,18.891611 63.4870642,18.5485307 C63.4870642,18.1394731 63.6429699,17.8260824 63.9547816,17.6083583 C64.2665934,17.3906341 64.6546993,17.2817721 65.1190995,17.2817721 C66.114243,17.2817721 66.9501635,17.7831972 67.6268611,18.7860479 L69.4579251,17.3807376 C69.0465991,16.6285996 68.4727331,16.0282089 67.7363269,15.5795652 C66.9999207,15.1309214 66.1275117,14.9065996 65.1190995,14.9065996 Z M81.9967331,15.1441169 L81.9967331,17.5588755 L77.7773247,17.5588755 L77.7773247,28.2075652 L75.0904373,28.2075652 L75.0904373,17.5588755 L70.8909318,17.5588755 L70.8909318,15.1441169 L81.9967331,15.1441169 Z M90.7539958,28.2075652 L90.0175896,26.5053583 L84.6438148,26.5053583 L83.9074086,28.2075652 L81.0214925,28.2075652 L86.892839,14.9065996 L87.7884682,14.9065996 L93.6399119,28.2075652 L90.7539958,28.2075652 Z M89.0622518,24.3083238 L87.3307022,19.9142548 L85.5991525,24.3083238 L89.0622518,24.3083238 Z M103.929696,15.1441169 L103.929696,22.9228065 L96.3068964,14.9065996 L95.4311702,14.9065996 L95.4311702,28.2075652 L98.1180576,28.2075652 L98.1180576,20.3694962 L105.720954,28.4450824 L106.616583,28.4450824 L106.616583,15.1441169 L103.929696,15.1441169 Z M113.920936,15.1441169 C116.043909,15.1441169 117.768824,15.73791 119.095682,16.9254962 C120.42254,18.1130824 121.085969,19.6833352 121.085969,21.6362548 C121.085969,23.5627834 120.419223,25.1396341 119.085731,26.3668065 C117.752239,27.593979 116.03064,28.2075652 113.920936,28.2075652 L109.621916,28.2075652 L109.621916,15.1441169 L113.920936,15.1441169 Z M113.901033,17.5588755 L112.308804,17.5588755 L112.308804,25.7928065 L113.901033,25.7928065 C115.227891,25.7928065 116.296012,25.4134386 117.105395,24.6547031 C117.914779,23.8959676 118.31947,22.8898179 118.31947,21.6362548 C118.31947,20.3694962 117.918096,19.3732434 117.115347,18.6474962 C116.312598,17.921749 115.24116,17.5588755 113.901033,17.5588755 Z" id="ANDSTAND"></path>
                <g id="Handstand">
                    <path d="M3.91732689,27.1461573 C3.40199979,27.2809103 3.24807091,26.9777159 3.11087344,26.6981033 C2.77624544,26.0243379 2.91344292,25.2899336 2.87998012,24.5791111 C2.87998012,24.346662 2.9000578,24.1142129 2.9167892,23.7571173 C3.11997009,24.1884471 3.20763976,24.66575 3.17110647,25.1417052 C3.13429739,25.8828471 3.25141719,26.5566125 3.91732689,27.1461573 L3.91732689,27.1461573 Z" id="Shape"></path>
                    <path d="M3.79133513,22.2994092 C3.53874062,22.7690307 3.18830344,23.178139 2.7640272,23.4987116 C2.66315974,23.5791719 2.63239695,23.719945 2.69040904,23.8355943 C2.82210809,24.2809279 2.87200367,24.7467134 2.83764536,25.2100757 C2.83764536,25.8501529 2.86776188,26.4969676 3.31616338,27.0225047 C3.32916114,27.0327421 3.33854611,27.0469144 3.34293362,27.0629306 C3.32285594,27.8108102 3.78129629,27.4402392 4.09919288,27.3998133 C4.18433245,27.3611126 4.27683079,27.3415686 4.37024155,27.3425432 C4.90544455,27.5661702 5.46827769,27.7157593 6.04338151,27.7872284 C5.77829358,28.0358321 5.42025303,28.1584352 5.05957521,28.1241111 C4.48736135,28.0634722 3.92853261,28.1712747 3.3630113,28.1510617 C3.19235103,28.1510617 2.96815027,28.1712747 3.13881055,27.8714491 C3.17944923,27.7783572 3.13948939,27.6695897 3.04846099,27.6255247 C2.15835054,26.9888164 1.96761258,26.0455448 1.9140721,25.0551097 C1.88395559,24.5160974 2.01780678,23.9804539 1.9140721,23.4347039 C1.87560123,23.205316 1.9822077,22.9759093 2.1817745,22.8586345 C2.78534569,22.4586307 3.2369741,21.8650648 3.4633997,21.174221 C3.55755457,20.8964133 3.77953567,20.6817249 4.05903752,20.5981516 C4.37694589,20.4952949 4.88222238,20.0557704 4.88222238,20.0557704 L5.43501831,19.6654991 C5.43501831,19.6654991 5.51233521,19.9138116 5.55817092,20.0860899 C5.64003743,20.4994685 5.53724829,20.9281786 5.27708341,21.2584417 C5.15717989,21.3835334 5.11996976,21.567158 5.18161942,21.7295375 C5.24326909,21.8919171 5.3926507,22.0037417 5.56486348,22.0164277 C5.71765178,22.0014475 5.87005342,22.0485355 5.98818973,22.147224 C6.10632605,22.2459125 6.18040685,22.3880231 6.1939641,22.5419647 C6.35199306,22.8817128 6.28397362,23.2845232 6.02330383,23.5526128 C5.5716094,24.0193501 4.92890051,24.2462503 4.28658456,24.1657394 C3.9631396,24.1340649 3.68176436,23.9293371 3.55040298,23.6300959 C3.44126051,23.369105 3.5379719,23.0669933 3.77795001,22.9192734 C3.94936409,22.7757667 3.97329779,22.5197577 3.83149049,22.3465728 L3.79133513,22.2994092 Z" id="Shape"></path>
                    <path d="M4.88222238,20.0557704 C4.59856966,20.2186837 4.2859217,20.3239834 3.96199541,20.3657025 C3.55709554,20.4431855 3.37639642,20.783437 3.19904359,21.1001068 C3.02169075,21.4167765 2.8978784,21.4369895 2.70379416,21.0798938 C2.1201382,20.112238 1.84022643,18.9897434 1.90068699,17.8592952 C2.00107538,16.5117644 1.82706883,15.1878154 1.90068699,13.8537599 C1.98871478,12.8001295 2.2253295,11.7644874 2.60340576,10.7780208 C2.84685608,10.2432961 2.84685608,9.62833205 2.60340576,9.09360733 C2.54897485,9.01440823 2.53886048,8.912583 2.57663553,8.82410117 C2.91126352,8.15033577 2.74394952,7.40919383 2.8142214,6.70174015 C2.92464864,5.5597078 2.96480399,4.40756896 3.01165191,3.25879895 C3.08032235,2.72685047 2.98327639,2.18655853 2.73391068,1.71250736 C2.83737346,2.78083747 2.8104022,3.85790607 2.65359996,4.91963067 C2.55279808,4.35273104 2.53139691,3.77440793 2.59002065,3.20152889 C2.59002065,2.76358138 2.49297853,2.34584683 2.48293969,1.91463698 C2.48293969,1.71924501 2.34239593,1.7057697 2.19181334,1.67881909 C1.45834723,1.60102007 0.717068172,1.65001208 0,1.82367865 C0.441708947,1.14991325 0.916880693,0.530049078 1.75345067,0.338025938 C1.94555849,0.280159927 2.15028812,0.280159927 2.34239593,0.338025938 C2.67702392,0.455934884 2.98822795,0.199904031 3.28604686,0.0617821237 C3.43623155,-0.0397345138 3.63783708,-0.0138242233 3.75787233,0.12242101 C3.90887169,0.225551844 3.965177,0.422531177 3.89172353,0.590687964 C3.5303253,1.26445337 3.77125745,1.91463698 3.89172353,2.55134528 C4.16492412,3.60478128 4.3551369,4.67827652 4.46059111,5.76183742 C4.48683605,6.04790677 4.41220107,6.33414626 4.24977548,6.5703559 C3.83743295,7.11755484 3.74803556,7.84526702 4.01553588,8.47711199 C4.26650688,9.09697616 4.43047459,9.7505286 4.68479186,10.3737616 C5.03949753,11.2799761 4.94914798,12.196297 4.81864306,13.1159868 C4.74930697,13.5293586 4.55401621,13.9107989 4.25981432,14.2074867 C3.98975725,14.5103278 3.76436484,14.8506944 3.59055834,15.2181348 C3.33624106,15.7234589 3.67756161,16.1816194 3.87833841,16.6094604 C4.15942592,17.1518415 4.55094067,17.6234773 4.79856538,18.1624896 C5.05661797,18.6436506 5.43579389,19.6675086 5.43579389,19.6675086 L4.88222238,20.0557704 Z" id="Shape"></path>
                    <path d="M16.3608207,14.2012938 L16.3608207,27.4475216 C16.3608207,27.8955756 16.2336621,28.0168534 15.801992,27.9966404 C14.9927424,27.9541406 14.1818423,27.9541406 13.3725928,27.9966404 C12.8572657,28.0303287 12.7836475,27.8349367 12.7869938,27.3767763 C12.7869938,23.954048 12.7869938,20.5313198 12.8104178,17.1052227 C12.8104178,16.6268493 12.669874,16.5291533 12.2248188,16.5325221 C9.88242285,16.5561039 7.54002692,16.5325221 5.21770866,16.5325221 C5.01023931,16.5325221 4.73919064,16.6234805 4.6622262,16.3135484 C4.56518408,15.9227645 4.11678258,15.6060947 4.42464033,15.1243524 C4.81950136,14.5078571 5.2110161,13.8846241 5.58579945,13.2546535 C5.69356442,13.0405405 5.92070001,12.914841 6.15801332,12.9379837 L12.3084758,12.9379837 C12.7033368,12.9379837 12.8104178,12.8335501 12.8070715,12.4360285 C12.8070715,8.56524627 12.8070715,4.68772638 12.7869938,0.820312977 C12.7869938,0.392471948 12.897421,0.274563002 13.315706,0.291407137 C14.1723537,0.325095407 15.0323476,0.32172658 15.8889953,0.291407137 C16.2771637,0.291407137 16.3574745,0.416053737 16.3574745,0.779887053 C16.3530128,5.26267286 16.3541282,9.73647512 16.3608207,14.2012938 L16.3608207,14.2012938 Z" id="Shape"></path>
                </g>
            </g>
        </g>
    </g>
</svg>