<?xml version="1.0" encoding="UTF-8"?>
<svg width="25px" height="25px" viewBox="0 0 25 25" version="1.1" xmlns="http://www.w3.org/2000/svg" xmlns:xlink="http://www.w3.org/1999/xlink">
    <title>case-study-icon-people</title>
    <g id="✅-New-Home-Page" stroke="none" stroke-width="1" fill="none" fill-rule="evenodd">
        <g id="MacBook-Pro-14&quot;-Copy-6" transform="translate(-172.000000, -1983.000000)" fill="#131415" fill-rule="nonzero">
            <g id="Group-57" transform="translate(116.000000, 1156.000000)">
                <g id="Group-52" transform="translate(10.000000, 393.000000)">
                    <g id="Group-15" transform="translate(29.000000, 427.000000)">
                        <g id="Group-16" transform="translate(17.086519, 6.409906)">
                            <path d="M12.2620781,0.812049383 C5.48991936,0.812049383 0,6.35607036 0,13.1949668 C0,20.0338633 5.48991936,25.5778842 12.2620781,25.5778842 C19.0342368,25.5778842 24.5241562,20.0338633 24.5241562,13.1949668 C24.5217142,6.35709208 19.0332251,0.814515408 12.2620781,0.812049383 L12.2620781,0.812049383 Z M6.2151067,20.971153 C6.74163567,19.8570777 9.95537974,18.7668328 12.2620781,18.7668328 C14.5687765,18.7668328 17.7928446,19.8570777 18.3090495,20.971153 C14.7688248,23.812947 9.75533136,23.812947 6.2151067,20.971153 Z M20.0582466,19.1749299 C18.3046249,17.0197602 14.0496218,16.2899515 12.2591284,16.2899515 C10.4686349,16.2899515 6.21215696,17.0212496 4.46001012,19.1749299 C1.37873194,15.097019 1.88974895,9.31826517 5.63778652,5.85623431 C9.3858241,2.39420344 15.1309577,2.39420344 18.8789953,5.85623431 C22.6270329,9.31826517 23.1380499,15.097019 20.0567717,19.1749299 L20.0582466,19.1749299 Z M12.2591284,5.77028033 C9.88879134,5.77028033 7.96725353,7.71075436 7.96725353,10.1044504 C7.96725353,12.4981464 9.88879134,14.4386204 12.2591284,14.4386204 C14.6294654,14.4386204 16.5510463,12.4981464 16.5510463,10.1044504 C16.5561167,8.95348817 16.1061284,7.8480669 15.3009017,7.03350676 C14.495675,6.21894662 13.4018157,5.76262543 12.2620781,5.76579554 L12.2591284,5.77028033 Z M12.2591284,11.961739 C11.243386,11.961739 10.4199641,11.1302026 10.4199641,10.1044504 C10.4199641,9.07869816 11.243386,8.2471617 12.2591284,8.2471617 C13.2748707,8.2471617 14.0982926,9.07869816 14.0982926,10.1044504 C14.0966653,11.1273939 13.2750405,11.9557827 12.2620781,11.9557814 L12.2591284,11.961739 Z" id="case-study-icon-people"></path>
                        </g>
                    </g>
                </g>
            </g>
        </g>
    </g>
</svg>